<mxfile host="app.diagrams.net" modified="2024-04-04T07:31:39.814Z" agent="Mozilla/5.0 (Windows NT 10.0; Win64; x64) AppleWebKit/537.36 (KHTML, like Gecko) Chrome/123.0.0.0 Safari/537.36" etag="CwPEfRENfn3O0Syae_i8" version="24.1.0" type="github">
  <diagram name="Page-1" id="TNA57m9JPnbvR5gz-xsA">
    <mxGraphModel dx="875" dy="508" grid="1" gridSize="10" guides="1" tooltips="1" connect="1" arrows="1" fold="1" page="1" pageScale="1" pageWidth="850" pageHeight="1100" math="0" shadow="0">
      <root>
        <mxCell id="0" />
        <mxCell id="1" parent="0" />
        <mxCell id="erLkvJw8QBC7TUA9yccV-2" value="Genesis Block" style="whiteSpace=wrap;html=1;aspect=fixed;" vertex="1" parent="1">
          <mxGeometry x="120" y="290" width="120" height="120" as="geometry" />
        </mxCell>
        <mxCell id="erLkvJw8QBC7TUA9yccV-23" style="edgeStyle=orthogonalEdgeStyle;rounded=0;orthogonalLoop=1;jettySize=auto;html=1;exitX=0;exitY=0.25;exitDx=0;exitDy=0;entryX=1;entryY=0.75;entryDx=0;entryDy=0;" edge="1" parent="1" source="erLkvJw8QBC7TUA9yccV-3" target="erLkvJw8QBC7TUA9yccV-2">
          <mxGeometry relative="1" as="geometry">
            <Array as="points">
              <mxPoint x="260" y="320" />
              <mxPoint x="260" y="380" />
            </Array>
          </mxGeometry>
        </mxCell>
        <mxCell id="erLkvJw8QBC7TUA9yccV-3" value="Block Header" style="whiteSpace=wrap;html=1;aspect=fixed;verticalAlign=top;fontStyle=1" vertex="1" parent="1">
          <mxGeometry x="270" y="290" width="120" height="120" as="geometry" />
        </mxCell>
        <mxCell id="erLkvJw8QBC7TUA9yccV-6" value="" style="rounded=0;whiteSpace=wrap;html=1;" vertex="1" parent="1">
          <mxGeometry x="280" y="313" width="100" height="57" as="geometry" />
        </mxCell>
        <mxCell id="erLkvJw8QBC7TUA9yccV-7" value="Transaction Data" style="rounded=0;whiteSpace=wrap;html=1;" vertex="1" parent="1">
          <mxGeometry x="280" y="380" width="100" height="20" as="geometry" />
        </mxCell>
        <mxCell id="erLkvJw8QBC7TUA9yccV-8" value="Parent Block" style="rounded=0;whiteSpace=wrap;html=1;" vertex="1" parent="1">
          <mxGeometry x="290" y="313" width="80" height="27" as="geometry" />
        </mxCell>
        <mxCell id="erLkvJw8QBC7TUA9yccV-9" value="Nonce" style="rounded=0;whiteSpace=wrap;html=1;fontSize=9;" vertex="1" parent="1">
          <mxGeometry x="300" y="340" width="40" height="20" as="geometry" />
        </mxCell>
        <mxCell id="erLkvJw8QBC7TUA9yccV-10" value="...." style="text;html=1;align=center;verticalAlign=middle;whiteSpace=wrap;rounded=0;" vertex="1" parent="1">
          <mxGeometry x="340" y="350" width="30" height="10" as="geometry" />
        </mxCell>
        <mxCell id="erLkvJw8QBC7TUA9yccV-24" style="edgeStyle=orthogonalEdgeStyle;rounded=0;orthogonalLoop=1;jettySize=auto;html=1;exitX=0;exitY=0.25;exitDx=0;exitDy=0;entryX=1;entryY=0.75;entryDx=0;entryDy=0;" edge="1" parent="1" source="erLkvJw8QBC7TUA9yccV-11" target="erLkvJw8QBC7TUA9yccV-3">
          <mxGeometry relative="1" as="geometry">
            <Array as="points">
              <mxPoint x="410" y="320" />
              <mxPoint x="410" y="380" />
            </Array>
          </mxGeometry>
        </mxCell>
        <mxCell id="erLkvJw8QBC7TUA9yccV-11" value="Block Header" style="whiteSpace=wrap;html=1;aspect=fixed;verticalAlign=top;fontStyle=1" vertex="1" parent="1">
          <mxGeometry x="420" y="290" width="120" height="120" as="geometry" />
        </mxCell>
        <mxCell id="erLkvJw8QBC7TUA9yccV-12" value="" style="rounded=0;whiteSpace=wrap;html=1;" vertex="1" parent="1">
          <mxGeometry x="430" y="313" width="100" height="57" as="geometry" />
        </mxCell>
        <mxCell id="erLkvJw8QBC7TUA9yccV-13" value="Transaction Data" style="rounded=0;whiteSpace=wrap;html=1;" vertex="1" parent="1">
          <mxGeometry x="430" y="380" width="100" height="20" as="geometry" />
        </mxCell>
        <mxCell id="erLkvJw8QBC7TUA9yccV-14" value="Parent Block" style="rounded=0;whiteSpace=wrap;html=1;" vertex="1" parent="1">
          <mxGeometry x="440" y="313" width="80" height="27" as="geometry" />
        </mxCell>
        <mxCell id="erLkvJw8QBC7TUA9yccV-15" value="Nonce" style="rounded=0;whiteSpace=wrap;html=1;fontSize=9;" vertex="1" parent="1">
          <mxGeometry x="450" y="340" width="40" height="20" as="geometry" />
        </mxCell>
        <mxCell id="erLkvJw8QBC7TUA9yccV-16" value="...." style="text;html=1;align=center;verticalAlign=middle;whiteSpace=wrap;rounded=0;" vertex="1" parent="1">
          <mxGeometry x="490" y="350" width="30" height="10" as="geometry" />
        </mxCell>
        <mxCell id="erLkvJw8QBC7TUA9yccV-25" style="edgeStyle=orthogonalEdgeStyle;rounded=0;orthogonalLoop=1;jettySize=auto;html=1;exitX=0;exitY=0.25;exitDx=0;exitDy=0;entryX=1;entryY=0.75;entryDx=0;entryDy=0;" edge="1" parent="1" source="erLkvJw8QBC7TUA9yccV-17" target="erLkvJw8QBC7TUA9yccV-11">
          <mxGeometry relative="1" as="geometry">
            <Array as="points">
              <mxPoint x="560" y="320" />
              <mxPoint x="560" y="380" />
            </Array>
          </mxGeometry>
        </mxCell>
        <mxCell id="erLkvJw8QBC7TUA9yccV-26" style="edgeStyle=orthogonalEdgeStyle;rounded=0;orthogonalLoop=1;jettySize=auto;html=1;exitX=1;exitY=0.5;exitDx=0;exitDy=0;endArrow=none;endFill=0;startArrow=classic;startFill=1;" edge="1" parent="1" source="erLkvJw8QBC7TUA9yccV-17">
          <mxGeometry relative="1" as="geometry">
            <mxPoint x="710" y="320" as="targetPoint" />
          </mxGeometry>
        </mxCell>
        <mxCell id="erLkvJw8QBC7TUA9yccV-17" value="Block Header" style="whiteSpace=wrap;html=1;aspect=fixed;verticalAlign=top;fontStyle=1" vertex="1" parent="1">
          <mxGeometry x="572.94" y="290" width="120" height="120" as="geometry" />
        </mxCell>
        <mxCell id="erLkvJw8QBC7TUA9yccV-18" value="" style="rounded=0;whiteSpace=wrap;html=1;" vertex="1" parent="1">
          <mxGeometry x="582.94" y="313" width="100" height="57" as="geometry" />
        </mxCell>
        <mxCell id="erLkvJw8QBC7TUA9yccV-19" value="Transaction Data" style="rounded=0;whiteSpace=wrap;html=1;" vertex="1" parent="1">
          <mxGeometry x="582.94" y="380" width="100" height="20" as="geometry" />
        </mxCell>
        <mxCell id="erLkvJw8QBC7TUA9yccV-20" value="Parent Block" style="rounded=0;whiteSpace=wrap;html=1;" vertex="1" parent="1">
          <mxGeometry x="592.94" y="313" width="80" height="27" as="geometry" />
        </mxCell>
        <mxCell id="erLkvJw8QBC7TUA9yccV-21" value="Nonce" style="rounded=0;whiteSpace=wrap;html=1;fontSize=9;" vertex="1" parent="1">
          <mxGeometry x="602.94" y="340" width="40" height="20" as="geometry" />
        </mxCell>
        <mxCell id="erLkvJw8QBC7TUA9yccV-22" value="...." style="text;html=1;align=center;verticalAlign=middle;whiteSpace=wrap;rounded=0;" vertex="1" parent="1">
          <mxGeometry x="642.94" y="350" width="30" height="10" as="geometry" />
        </mxCell>
      </root>
    </mxGraphModel>
  </diagram>
</mxfile>
